<svg width="10" height="10" viewBox="0 0 10 10" fill="none" xmlns="http://www.w3.org/2000/svg">
<path d="M4.16666 2.08301H2.49999C2.26988 2.08301 2.08333 2.26956 2.08333 2.49967V7.49967C2.08333 7.72979 2.26988 7.91634 2.5 7.91634H7.49999C7.73011 7.91634 7.91666 7.72979 7.91666 7.49967V5.83301" stroke="#CEBFBF" stroke-linecap="round" stroke-linejoin="round"/>
<path d="M7.83333 3.75033C7.83333 4.02647 8.05719 4.25033 8.33333 4.25033C8.60948 4.25033 8.83333 4.02647 8.83333 3.75033L7.83333 3.75033ZM8.33333 1.66699L8.83333 1.66699C8.83333 1.53438 8.78065 1.40721 8.68689 1.31344C8.59312 1.21967 8.46594 1.16699 8.33333 1.16699V1.66699ZM6.25 1.16699C5.97386 1.16699 5.75 1.39085 5.75 1.66699C5.75 1.94313 5.97386 2.16699 6.25 2.16699V1.16699ZM8.83333 3.75033L8.83333 1.66699L7.83333 1.66699L7.83333 3.75033L8.83333 3.75033ZM8.33333 1.16699H6.25V2.16699H8.33333V1.16699Z" fill="#CEBFBF"/>
<path d="M5.06312 4.23011C4.86786 4.42537 4.86786 4.74195 5.06312 4.93721C5.25838 5.13247 5.57496 5.13247 5.77023 4.93721L5.06312 4.23011ZM8.68689 2.02055C8.88215 1.82528 8.88215 1.5087 8.68689 1.31344C8.49163 1.11818 8.17505 1.11818 7.97978 1.31344L8.68689 2.02055ZM5.77023 4.93721L8.68689 2.02055L7.97978 1.31344L5.06312 4.23011L5.77023 4.93721Z" fill="#CEBFBF"/>
</svg>
